<?xml version="1.0" encoding="utf-8"?>
<!-- Generator: Adobe Illustrator 18.1.1, SVG Export Plug-In . SVG Version: 6.00 Build 0)  -->
<svg version="1.1" id="Layer_1" xmlns="http://www.w3.org/2000/svg" xmlns:xlink="http://www.w3.org/1999/xlink" x="0px" y="0px"
	 viewBox="0 0 21.8 23.3" enable-background="new 0 0 21.8 23.3" xml:space="preserve">
<path fill="#231F20" d="M20.1,5.8c-0.7,0.3-1.4,0.5-2.2,0.6c0.8-0.5,1.4-1.2,1.7-2.1c-0.7,0.4-1.6,0.8-2.5,0.9
	C16.5,4.5,15.4,4,14.3,4c-2.1,0-3.9,1.7-3.9,3.9c0,0.3,0,0.6,0.1,0.9c-3.2-0.2-6.1-1.7-8-4C2.2,5.3,2,6,2,6.7C2,8,2.8,9.2,3.8,9.9
	c-0.6,0-1.7-0.2-1.7-0.5c0,0,0,0,0,0c0,1.9,1.3,3.4,3.1,3.8c-0.3,0.1-0.7,0.1-1,0.1c-0.2,0-0.5,0-0.7-0.1C3.9,14.9,5.3,16,7,16
	c-1.3,1-3,1.7-4.8,1.7c-0.3,0-0.6,0-0.9-0.1C3,18.7,5,19.4,7.2,19.4c7.1,0,11-5.9,11-11c0-0.2,0-0.3,0-0.5C19,7.3,19.6,6.6,20.1,5.8
	"/>
</svg>
