<?xml version="1.0" encoding="utf-8"?>
<!-- Generator: Adobe Illustrator 16.0.0, SVG Export Plug-In . SVG Version: 6.00 Build 0)  -->
<!DOCTYPE svg PUBLIC "-//W3C//DTD SVG 1.1//EN" "http://www.w3.org/Graphics/SVG/1.1/DTD/svg11.dtd">
<svg version="1.1" id="Layer_1" xmlns="http://www.w3.org/2000/svg" xmlns:xlink="http://www.w3.org/1999/xlink" x="0px" y="0px"
	 width="18.888px" height="15.35px" viewBox="0 0 18.888 15.35" enable-background="new 0 0 18.888 15.35" xml:space="preserve">
<g>
	<defs>
		<rect id="SVGID_1_" width="18.887" height="15.35"/>
	</defs>
	<clipPath id="SVGID_2_">
		<use xlink:href="#SVGID_1_"  overflow="visible"/>
	</clipPath>
	<path clip-path="url(#SVGID_2_)" fill="#3B92F3" d="M18.888,1.818c-0.695,0.308-1.443,0.516-2.227,0.609
		c0.799-0.479,1.414-1.238,1.704-2.143c-0.747,0.444-1.578,0.767-2.46,0.94C15.198,0.471,14.191,0,13.076,0
		c-2.141,0-3.874,1.735-3.874,3.875c0,0.304,0.033,0.599,0.099,0.883C6.082,4.597,3.227,3.054,1.315,0.709
		C0.981,1.283,0.791,1.948,0.791,2.659c0,1.344,0.724,2.529,1.764,3.225C1.918,5.863,0.838,5.69,0.838,5.399v0.049
		c0,1.877,1.295,3.443,3.068,3.799C3.582,9.334,3.219,9.381,2.865,9.381c-0.249,0-0.502-0.023-0.739-0.069
		c0.493,1.539,1.919,2.661,3.615,2.69c-1.326,1.041-2.999,1.66-4.816,1.66c-0.312,0-0.622-0.018-0.925-0.055
		c1.714,1.1,3.751,1.742,5.939,1.742c7.128,0,11.025-5.905,11.025-11.025c0-0.169-0.005-0.336-0.012-0.502
		C17.711,3.277,18.366,2.594,18.888,1.818"/>
</g>
</svg>
